<mxfile host="Electron" modified="2023-07-08T14:09:50.545Z" agent="Mozilla/5.0 (Macintosh; Intel Mac OS X 10_15_7) AppleWebKit/537.36 (KHTML, like Gecko) draw.io/21.6.1 Chrome/112.0.5615.204 Electron/24.6.1 Safari/537.36" etag="EKPLeAuni5eSJF9GKySx" version="21.6.1" type="device">
  <diagram name="Страница 1" id="RD5mDkQCHAY9WCZZ3OKd">
    <mxGraphModel dx="2025" dy="1684" grid="1" gridSize="10" guides="1" tooltips="1" connect="1" arrows="1" fold="1" page="1" pageScale="1" pageWidth="827" pageHeight="1169" math="0" shadow="0">
      <root>
        <mxCell id="0" />
        <mxCell id="1" parent="0" />
        <mxCell id="8gHPGUxXh6NszCc9FLT1-2" value="Actor" style="shape=note;size=20;whiteSpace=wrap;html=1;fillColor=#fff2cc;strokeColor=#d6b656;" vertex="1" parent="1">
          <mxGeometry x="40" y="40" width="100" height="100" as="geometry" />
        </mxCell>
        <mxCell id="8gHPGUxXh6NszCc9FLT1-3" value="Command" style="shape=note;size=20;whiteSpace=wrap;html=1;fillColor=#dae8fc;strokeColor=#6c8ebf;" vertex="1" parent="1">
          <mxGeometry x="40" y="160" width="100" height="100" as="geometry" />
        </mxCell>
        <mxCell id="8gHPGUxXh6NszCc9FLT1-4" value="Event" style="shape=note;size=20;whiteSpace=wrap;html=1;fillColor=#ffcc99;strokeColor=#36393d;" vertex="1" parent="1">
          <mxGeometry x="40" y="280" width="100" height="100" as="geometry" />
        </mxCell>
        <mxCell id="8gHPGUxXh6NszCc9FLT1-5" value="Policy" style="shape=note;size=20;whiteSpace=wrap;html=1;fillColor=#e1d5e7;strokeColor=#9673a6;" vertex="1" parent="1">
          <mxGeometry x="40" y="400" width="100" height="100" as="geometry" />
        </mxCell>
        <mxCell id="8gHPGUxXh6NszCc9FLT1-6" value="External system" style="shape=note;size=20;whiteSpace=wrap;html=1;fillColor=#ffcccc;strokeColor=#36393d;" vertex="1" parent="1">
          <mxGeometry x="40" y="520" width="100" height="100" as="geometry" />
        </mxCell>
        <mxCell id="8gHPGUxXh6NszCc9FLT1-7" value="Read model" style="shape=note;size=20;whiteSpace=wrap;html=1;fillColor=#60a917;strokeColor=#2D7600;fontColor=#ffffff;" vertex="1" parent="1">
          <mxGeometry x="40" y="640" width="100" height="100" as="geometry" />
        </mxCell>
        <mxCell id="8gHPGUxXh6NszCc9FLT1-8" value="Commentary" style="shape=note;size=20;whiteSpace=wrap;html=1;" vertex="1" parent="1">
          <mxGeometry x="40" y="760" width="100" height="100" as="geometry" />
        </mxCell>
        <mxCell id="8gHPGUxXh6NszCc9FLT1-9" value="" style="verticalLabelPosition=bottom;verticalAlign=top;html=1;shape=mxgraph.basic.rounded_frame;dx=3;whiteSpace=wrap;fillColor=#000000;" vertex="1" parent="1">
          <mxGeometry x="300" y="200" width="620" height="820" as="geometry" />
        </mxCell>
        <mxCell id="8gHPGUxXh6NszCc9FLT1-10" value="Название контекста" style="text;html=1;strokeColor=none;fillColor=none;align=left;verticalAlign=top;whiteSpace=wrap;rounded=0;" vertex="1" parent="1">
          <mxGeometry x="310" y="210" width="310" height="30" as="geometry" />
        </mxCell>
      </root>
    </mxGraphModel>
  </diagram>
</mxfile>
